<?xml version="1.0" encoding="utf-8"?>
<!-- Generator: Adobe Illustrator 26.0.3, SVG Export Plug-In . SVG Version: 6.00 Build 0)  -->
<svg version="1.1" id="Layer_1" xmlns="http://www.w3.org/2000/svg" xmlns:xlink="http://www.w3.org/1999/xlink" x="0px" y="0px"
	 viewBox="0 0 1196.1 224" style="enable-background:new 0 0 1196.1 224;" xml:space="preserve">
<style type="text/css">
	.Drop_x0020_Shadow{fill:none;}
	.Outer_x0020_Glow_x0020_5_x0020_pt{fill:none;}
	.Blue_x0020_Neon{fill:none;stroke:#8AACDA;stroke-width:7;stroke-linecap:round;stroke-linejoin:round;}
	.Chrome_x0020_Highlight{fill:url(#SVGID_1_);stroke:#FFFFFF;stroke-width:0.3629;stroke-miterlimit:1;}
	.Jive_GS{fill:#FFDD00;}
	.Alyssa_GS{fill:#A6D0E4;}
	.st0{display:none;fill:#30B9CA;}
	.st1{font-family:'Mic32New-Bold';}
	.st2{font-size:159.2235px;}
	.st3{letter-spacing:-3;}
	.st4{fill:#30B9CA;}
	
		.st5{clip-path:url(#SVGID_00000129177846100531761700000014446058050818574989_);fill:url(#SVGID_00000154427135017919308210000015407873197408531858_);}
</style>
<linearGradient id="SVGID_1_" gradientUnits="userSpaceOnUse" x1="167" y1="-188.1102" x2="167" y2="-189.1102">
	<stop  offset="0" style="stop-color:#656565"/>
	<stop  offset="0.618" style="stop-color:#1B1B1B"/>
	<stop  offset="0.6292" style="stop-color:#545454"/>
	<stop  offset="0.9831" style="stop-color:#3E3E3E"/>
</linearGradient>
<g id="Group_1_copy" transform="translate(-96 -117)">
	<path id="Path_64" d="M449.9,283h23.4l4.6-55.4c0.5-5.6,0.8-13.1,1-20.8c1.6,7,3.6,13.9,5.9,20.6l13.3,37.3h25
		l13.3-37.3c2.3-6.7,4.2-13.6,5.8-20.5c0.3,7.5,0.6,15,1.1,20.6l4.6,55.4h23.4l-11.5-108.2h-26.7L514.5,227
		c-1.5,4.6-2.8,9.2-3.8,13.9c-1.3-5.1-2.6-10.2-3.8-13.9l-18.6-52.3h-26.7L449.9,283z M571.6,248.9c0,23.5,15,36.2,37.4,36.2
		c9.4,0.2,18.7-1.5,27.4-5l-4.5-18.4c-7.4,2.5-15.1,3.9-22.9,4c-9.8,0-14.7-5.4-14.7-16.8v-1.1H640v-18.2c0-19-15.4-32.3-34.2-32.3
		s-34.1,12.3-34.1,35.4v16.2H571.6z M594.4,231.8v-2.2c0-7.4,4.6-13,11.4-13c7.2,0,11.4,5.8,11.4,13v2.2H594.4z M649.4,283h22.9
		v-68.5h13.4v-15.2h-13.4v-25.6l-22.9,3v22.6h-13.6l3.4,15.2h10.2L649.4,283L649.4,283z M687.6,283h22.9v-63.5c4-1.6,8-2.9,12.2-2.9
		c6.9,0,10.9,3.7,10.9,15.4v51h22.9v-52.3c0-23.7-14.7-33.4-31.7-33.4c-5,0.1-9.9,1.5-14.2,3.8v-35.2h-22.9V283H687.6z M762.5,248.4
		c0,22.9,15,36.6,35.7,36.6c20.6,0,35.7-13.8,35.7-36.6v-14.6c0-22.9-15-36.6-35.7-36.6c-20.6,0-35.7,13.8-35.7,36.6V248.4z
		 M785.2,247.6v-13c0-11,3.2-18.1,13-18.1c9.6,0,13,7,13,18.1v13c0,11-3.4,18.1-13,18.1C788.6,265.7,785.2,258.7,785.2,247.6z
		 M838,250c0,22.1,16.2,35,35,35s35-13,35-35v-84.2h-22.9V201c-4.3-2.4-9.1-3.7-14.1-3.8c-17,0-33.1,11.5-33.1,35.2L838,250L838,250
		z M860.8,249.2v-16c0-12.2,5.4-16.6,12.5-16.6c4.1,0.2,8.2,1.2,12,2.9v29.8c0,11-5.1,16.5-12.2,16.5
		C866,265.7,860.8,260.3,860.8,249.2L860.8,249.2z M915,254.2c1.4,19,14.1,30.9,32,30.9c9.6,0,16.6-4.2,21-11c4.3,6.9,11.4,11,21,11
		c18.1,0,30.7-11.4,32.2-30.9l4.3-54.9h-22.7l-4,53.3c-0.6,7.5-3.8,12.8-10.1,12.8c-6.1,0-9.4-5.8-9.4-13v-47.7h-22.2v47.7
		c0,7.2-3.4,13-9.4,13c-6.2,0-9.4-5.3-9.9-12.8l-3.8-53.3h-23L915,254.2z M1027.5,248.4c0,22.9,15,36.6,35.7,36.6
		s35.7-13.8,35.7-36.6v-14.6c0-22.9-15-36.6-35.7-36.6s-35.7,13.8-35.7,36.6V248.4z M1050.2,247.6v-13c0-11,3.2-18.1,13-18.1
		c9.6,0,13,7,13,18.1v13c0,11-3.4,18.1-13,18.1S1050.2,258.7,1050.2,247.6z M1104.9,283h22.7v-53.4c0-7.5,4.2-13,11.4-13
		c3.8,0.1,7.7,0.7,11.4,1.8l4.3-18.6c-5.1-1.7-10.5-2.5-15.8-2.6c-19,0-33.9,13-33.9,32.3L1104.9,283L1104.9,283z M1154.8,283h25.1
		l13.4-23.5l13,23.5h25.8l-25.4-43.5l23.4-40.2h-24.5l-12,20.8l-11.5-20.8H1157l23.4,40.8L1154.8,283z"/>
	<text transform="matrix(1 0 0 1 444.9995 282.6378)" >MethodWorx</text>
	<g>
		<path d="M462,175h26.6l18.5,52.1c1.3,3.7,2.5,8.8,3.8,13.9c1.1-5.1,2.5-10.2,3.8-13.9l18.5-52.1h26.6l11.5,107.6H548
			l-4.6-55.1c-0.5-5.6-0.8-13.1-1.1-20.5c-1.8,7.5-3.8,15-5.7,20.4l-13.2,37.1h-24.8l-13.2-37.1c-1.9-5.4-4.1-12.9-5.9-20.5
			c-0.2,7.6-0.5,15.1-1,20.7l-4.6,55.1h-23.2L462,175z"/>
		<path d="M580.5,232.5c0-22.9,15.1-35.2,33.9-35.2c18.8,0,34.1,13.2,34.1,32.2v18.2h-45.4v1.1
			c0,11.3,4.9,16.7,14.6,16.7c8,0,15.4-1.6,22.8-4l4.5,18.3c-9.1,3.3-16.1,4.9-27.2,4.9c-22.3,0-37.3-12.6-37.3-36V232.5z
			 M625.7,231.7v-2.2c0-7.2-4.1-12.9-11.3-12.9c-6.7,0-11.3,5.6-11.3,12.9v2.2H625.7z"/>
		<path d="M666.6,214.5h-10.2l-3.3-15.1h13.5v-22.5l22.8-3v25.5h13.4v15.1h-13.4v68.1h-22.8V214.5z"/>
		<path d="M711.9,166.1h22.8v35c3.5-1.9,8.9-3.8,14.2-3.8c16.9,0,31.5,9.7,31.5,33.3v52.1h-22.8v-50.8
			c0-11.6-4-15.3-10.8-15.3c-4.1,0-8.1,1.3-12.1,2.9v63.2h-22.8V166.1z"/>
		<path d="M793.5,233.8c0-22.8,15-36.5,35.5-36.5s35.5,13.7,35.5,36.5v14.5c0,22.8-15,36.5-35.5,36.5
			s-35.5-13.7-35.5-36.5V233.8z M829,265.4c9.6,0,12.9-7,12.9-18v-12.9c0-11-3.3-18-12.9-18c-9.7,0-12.9,7-12.9,18v12.9
			C816.1,258.4,819.5,265.4,829,265.4z"/>
		<path d="M875.9,232.3c0-23.6,16.1-35,33-35c5.1,0,10.7,1.9,14,3.8v-35h22.8v83.8c0,22-16.1,34.9-34.9,34.9
			c-18.8,0-34.9-12.9-34.9-34.9V232.3z M910.7,265.4c7,0,12.1-5.4,12.1-16.4v-29.6c-3.8-1.6-8-2.9-11.9-2.9c-7,0-12.4,4.5-12.4,16.6
			V249C898.5,260,903.7,265.4,910.7,265.4z"/>
		<path d="M954.8,175h23.9l6.7,54.6c0.8,6.5,1.3,15.3,1.8,23.9c1.6-8.6,3.3-17.4,5.4-23.7l11.6-37.4h25l11.9,37.4
			c1.9,6.2,3.8,14.8,5.4,23.2c0.5-8.4,1-17,1.8-23.4l6.7-54.6h23.9l-17.5,107.6h-26l-15.3-50.6c-1.3-4.3-2.4-9.7-3.3-15.1
			c-0.8,5.4-1.9,10.8-3.2,15.1l-15.3,50.6h-26L954.8,175z"/>
		<path d="M1083.3,233.8c0-22.8,15-36.5,35.5-36.5s35.5,13.7,35.5,36.5v14.5c0,22.8-15,36.5-35.5,36.5
			s-35.5-13.7-35.5-36.5V233.8z M1118.8,265.4c9.6,0,12.9-7,12.9-18v-12.9c0-11-3.3-18-12.9-18c-9.7,0-12.9,7-12.9,18v12.9
			C1105.9,258.4,1109.3,265.4,1118.8,265.4z"/>
		<path d="M1167.5,229.5c0-19.3,14.8-32.2,33.8-32.2c5.3,0,11,1,15.8,2.5l-4.3,18.5c-3.5-1-7.5-1.8-11.3-1.8
			c-7.2,0-11.3,5.4-11.3,12.9v53.2h-22.6V229.5z"/>
		<path d="M1240.2,240l-23.2-40.6h25l11.5,20.7l11.9-20.7h24.4l-23.2,40l25.3,43.3h-25.6l-12.9-23.4l-13.4,23.4h-25
			L1240.2,240z"/>
	</g>
	<g>
		<defs>
			<path id="SVGID_00000083806536997314793360000015976916744954291644_" d="M314.3,189.5l66,33.1v-66.1L314.3,189.5z M314.1,195.9
				V262l66-33.1L314.1,195.9z M380.3,301.5v-66.1l-66,33.1L380.3,301.5z M96,235.4v66.1l66-33.1L96,235.4z M162.2,262.1V196
				l-66,33.1L162.2,262.1z M96,156.5v66.1l66-33.1L96,156.5z M307.4,341v-66.1l-66,33.1L307.4,341z M314.1,341l66-33.1l-66-33.1V341
				z M162.2,341v-66.1l-66,33.1L162.2,341z M168.9,341l66-33.1l-66-33.1V341z M235.1,301.5v-66.1l-66,33.1L235.1,301.5z
				 M241.8,301.5l66-33.1l-66-33.1L241.8,301.5L241.8,301.5z M168.9,117v66.1l66-33.1L168.9,117z M162.2,183.1V117l-66,33.1
				L162.2,183.1z M314.1,117v66.1l66-33.1L314.1,117z M307.4,117l-66,33.1l66,33.1V117z M241.2,156.5v66.1l66-33.1L241.2,156.5z
				 M234.5,156.5l-66,33.1l66,33.1V156.5z"/>
		</defs>
		<clipPath id="SVGID_00000021077115224612752610000006809690505656879781_">
			<use xlink:href="#SVGID_00000083806536997314793360000015976916744954291644_"  style="overflow:visible;"/>
		</clipPath>
		
			<linearGradient id="SVGID_00000018936951751937236190000007029968320437305776_" gradientUnits="userSpaceOnUse" x1="317.1931" y1="371.0257" x2="156.1331" y2="83.9454">
			<stop  offset="0.4411" style="stop-color:#30B9CA"/>
			<stop  offset="0.606" style="stop-color:#2DABBC"/>
			<stop  offset="0.9172" style="stop-color:#278698"/>
			<stop  offset="1" style="stop-color:#257B8D"/>
		</linearGradient>
		
			<rect x="94.4" y="116.1" style="clip-path:url(#SVGID_00000021077115224612752610000006809690505656879781_);fill:url(#SVGID_00000018936951751937236190000007029968320437305776_);" width="287.1" height="227.3"/>
	</g>
</g>
</svg>
